<?xml version="1.0" encoding="UTF-8"?>
<svg id="Capa_1" xmlns="http://www.w3.org/2000/svg" version="1.1" viewBox="0 0 595.28 595.28">
  <!-- Generator: Adobe Illustrator 29.5.0, SVG Export Plug-In . SVG Version: 2.1.0 Build 137)  -->
  <defs>
    <style>
      .st0 {
        fill: #2d7d6b;
      }

      .st1 {
        fill: #7ebda6;
      }

      .st2 {
        fill: #0e3d33;
      }

      .st3 {
        fill: #f2b334;
      }
    </style>
  </defs>
  <g>
    <g>
      <path class="st0" d="M431.25,190.99c15.61,15.61,26.01,37.02,34.42,58.63-3.87,22.48-49.52,41.72,0,91.24-5.4,31.22-17.01,47.42-39.62,69.03-29.41,8-45.62-5.6-46.22-12.81,16.61-31.82,47.42-59.53,44.12-91.64-22.62-54.47-5.3-97.65,7.3-114.46Z"/>
      <circle class="st0" cx="498.98" cy="297.64" r="39.92"/>
    </g>
    <g>
      <path class="st1" d="M164.02,412.34c-15.61-15.61-26.01-37.02-34.42-58.63,3.87-22.48,49.52-41.72,0-91.24,5.4-31.22,17.01-47.42,39.62-69.03,29.41-8,45.62,5.6,46.22,12.81-16.61,31.82-47.42,59.53-44.12,91.64,22.62,54.47,5.3,97.65-7.3,114.46Z"/>
      <circle class="st1" cx="96.29" cy="305.68" r="39.92"/>
    </g>
    <g>
      <path class="st2" d="M189.41,164.02c15.61-15.61,37.02-26.01,58.63-34.42,22.48,3.87,41.72,49.52,91.24,0,31.22,5.4,47.42,17.01,69.03,39.62,8,29.41-5.6,45.62-12.81,46.22-31.82-16.61-59.53-47.42-91.64-44.12-54.47,22.62-97.65,5.3-114.46-7.3Z"/>
      <circle class="st2" cx="296.07" cy="96.29" r="39.92"/>
    </g>
    <g>
      <path class="st2" d="M410.76,431.25c-15.61,15.61-37.02,26.01-58.63,34.42-22.48-3.87-41.72-49.52-91.24,0-31.22-5.4-47.42-17.01-69.03-39.62-8-29.41,5.6-45.62,12.81-46.22,31.82,16.61,59.53,47.42,91.64,44.12,54.47-22.62,97.65-5.3,114.46,7.3Z"/>
      <circle class="st2" cx="304.11" cy="498.98" r="39.92"/>
    </g>
  </g>
  <circle class="st3" cx="297.64" cy="297.64" r="90.29"/>
</svg>