<?xml version="1.0" encoding="UTF-8"?>
<svg id="Capa_1" xmlns="http://www.w3.org/2000/svg" version="1.1" viewBox="0 0 595.28 595.28">
  <!-- Generator: Adobe Illustrator 29.5.0, SVG Export Plug-In . SVG Version: 2.1.0 Build 137)  -->
  <defs>
    <style>
      .st0 {
        fill: #f3f4f1;
      }

      .st1 {
        fill: #f2b334;
      }
    </style>
  </defs>
  <g>
    <g>
      <g>
        <path class="st0" d="M392.5,128.4c11.08,11.08,18.47,26.28,24.43,41.62-2.75,15.96-35.16,29.62,0,64.78-3.84,22.16-12.07,33.67-28.13,49.01-20.88,5.68-32.39-3.98-32.82-9.09,11.79-22.59,33.67-42.26,31.32-65.06-16.06-38.67-3.76-69.32,5.19-81.26Z"/>
        <circle class="st0" cx="440.58" cy="204.11" r="28.34"/>
      </g>
      <g>
        <path class="st0" d="M202.78,285.54c-11.08-11.08-18.47-26.28-24.43-41.62,2.75-15.96,35.16-29.62,0-64.78,3.84-22.16,12.07-33.67,28.13-49.01,20.88-5.68,32.39,3.98,32.82,9.09-11.79,22.59-33.67,42.26-31.32,65.06,16.06,38.67,3.76,69.32-5.19,81.26Z"/>
        <circle class="st0" cx="154.69" cy="209.83" r="28.34"/>
      </g>
      <g>
        <path class="st0" d="M220.81,109.25c11.08-11.08,26.28-18.47,41.62-24.43,15.96,2.75,29.62,35.16,64.78,0,22.16,3.84,33.67,12.07,49.01,28.13,5.68,20.88-3.98,32.39-9.09,32.82-22.59-11.79-42.26-33.67-65.06-31.32-38.67,16.06-69.32,3.76-81.26-5.19Z"/>
        <circle class="st0" cx="296.52" cy="61.17" r="28.34"/>
      </g>
      <g>
        <path class="st0" d="M377.95,298.97c-11.08,11.08-26.28,18.47-41.62,24.43-15.96-2.75-29.62-35.16-64.78,0-22.16-3.84-33.67-12.07-49.01-28.13-5.68-20.88,3.98-32.39,9.09-32.82,22.59,11.79,42.26,33.67,65.06,31.32,38.67-16.06,69.32-3.76,81.26,5.19Z"/>
        <circle class="st0" cx="302.23" cy="347.06" r="28.34"/>
      </g>
    </g>
    <circle class="st1" cx="297.64" cy="204.11" r="64.1"/>
  </g>
  <g>
    <path class="st0" d="M165.81,517.71l-47.38-52.5v52.5h-15.02v-115.07h15.02v53.33l47.55-53.33h18.99l-52.17,57.62,52.66,57.45h-19.65Z"/>
    <path class="st0" d="M282.53,427.24v90.47h-15.02v-13.37c-2.86,4.62-6.85,8.23-11.97,10.81-5.12,2.58-10.76,3.88-16.92,3.88-7.04,0-13.37-1.46-18.99-4.38-5.61-2.91-10.04-7.29-13.29-13.12-3.25-5.83-4.87-12.93-4.87-21.3v-53h14.86v51.01c0,8.92,2.25,15.77,6.77,20.55,4.51,4.79,10.67,7.18,18.49,7.18s14.36-2.48,18.99-7.43c4.62-4.95,6.93-12.16,6.93-21.63v-49.69h15.02Z"/>
    <path class="st0" d="M322.98,395.54v122.17h-15.02v-122.17h15.02Z"/>
    <path class="st0" d="M363.59,395.54v122.17h-15.02v-122.17h15.02Z"/>
    <path class="st0" d="M439.7,517.71l-35.5-39.95v39.95h-15.02v-122.17h15.02v71.81l34.83-40.12h20.97l-42.59,45.07,42.76,45.4h-20.47Z"/>
    <path class="st0" d="M474.7,409.57c-1.98-1.98-2.97-4.4-2.97-7.26s.99-5.28,2.97-7.26c1.98-1.98,4.4-2.97,7.26-2.97s5.09.99,7.02,2.97c1.92,1.98,2.89,4.4,2.89,7.26s-.96,5.28-2.89,7.26c-1.93,1.98-4.27,2.97-7.02,2.97s-5.28-.99-7.26-2.97ZM489.23,427.24v90.47h-15.02v-90.47h15.02Z"/>
  </g>
</svg>