<?xml version="1.0" encoding="UTF-8"?>
<svg id="Capa_1" xmlns="http://www.w3.org/2000/svg" version="1.1" viewBox="0 0 840 445">
  <!-- Generator: Adobe Illustrator 30.0.0, SVG Export Plug-In . SVG Version: 2.1.1 Build 123)  -->
  <defs>
    <style>
      .st0 {
        fill: #e8a838;
      }

      .st1 {
        fill: #d8eff4;
      }

      .st2 {
        fill: #5ea9d5;
      }

      .st3 {
        fill: #fff;
      }

      .st4 {
        fill: #1b3a6b;
      }

      .st5 {
        fill: #a8dce8;
      }

      .st6 {
        stroke: #a8dce8;
        stroke-width: .78px;
      }

      .st6, .st7 {
        fill: none;
        stroke-miterlimit: 10;
      }

      .st7 {
        stroke: #fff;
        stroke-width: .81px;
      }

      .st8 {
        fill: #fefefe;
      }

      .st9 {
        fill: #feffff;
      }
    </style>
  </defs>
  <g>
    <g>
      <path class="st0" d="M309.35,315.23v-79.33c0-.05.68-.74.74-.74h59.93c11.48,0,19.53,8.26,20.4,19.39.87,11.1.95,31.23,0,42.28-.78,9.12-8.29,18.4-17.95,18.4h-63.12ZM324.09,302.95h44.95c2.55,0,6.67-4.38,6.59-7.17-.78-12.81,1.19-27.14.06-39.77-.26-2.89-1.67-6.11-4.43-7.36-.56-.25-3.81-1.22-4.18-1.22h-42.98v55.51Z"/>
      <path class="st3" d="M575.6,314.74v25.3c0,.05-.68.74-.74.74h-12.77c-.05,0-.74-.68-.74-.74v-71.23c0-.94,1.14-4.71,1.6-5.76,2.55-5.78,8.54-7.32,14.37-7.74,11.2-.82,31.22-.9,42.2.53,6.36.83,10.58,6.29,11.11,12.47.73,8.51.83,25.98-.02,34.4-.79,7.76-6.64,11.87-14,12.52-10.88.97-26.66.41-37.84.03-1.1-.04-2.08-.5-3.17-.51ZM580.88,265.25c-2.95.43-4.57,1.57-5.25,4.57l.21,34.12c.44.73,3.01,1.36,3.94,1.47,7.21.8,22.08.57,29.5.02,4.4-.33,7.16-1.34,7.61-6.14.64-6.86.64-21.18,0-28.04-.35-3.74-2.38-5.72-6.16-6.12-6.25-.67-23.77-.75-29.84.13Z"/>
      <path class="st3" d="M493.81,315.23c-7.01-.74-12.22-5.52-12.96-12.59-.87-8.38-.82-25.88-.05-34.32.8-8.81,6.68-12.38,14.98-13.02,10.61-.82,28.17-.8,38.79,0,4.96.37,10.14,1.77,12.94,6.21.49.78,2.04,4.66,2.04,5.32v21.61c0,.05-.68.74-.74.74h-53.54c-.05,0-.74.68-.74.74v8.84c0,.6.83,3.5,1.25,4.16,1.94,3.05,9.79,1.89,13.27,1.96,7.02.14,14.12.05,21.08,0,5.1-.04,12.44-.56,17.24,0,.49.06,1.69.22,1.69.76v8.84c0,.05-.68.74-.74.74h-54.53ZM494.54,278.88h40.53c.05,0,.74-.68.74-.74v-8.35c0-2.42-2.96-4.32-5.2-4.62-4.75-.64-27.84-.68-31.96.37-1.71.43-4.1,2.49-4.1,4.25v9.09Z"/>
      <path class="st3" d="M469,289.19h-53.79c-.05,0-.74.68-.74.74v10.81c0,1.48,2.62,3.9,4.2,4.15,5.71.91,15.83-.02,22.1,0,2.45.01,4.89,0,7.33,0,3.23.01,18.26-.5,19.91.27.23.11.99.89.99.98v8.35c0,.05-.68.74-.74.74h-55.02c-5.65,0-11.8-6-12.47-11.6-1.34-11.24.89-24.8-.05-36.29.94-8.32,7.31-11.44,14.98-12.03,9.16-.71,34.84-1.17,43.1.6,3.77.81,10.19,5.34,10.19,9.46v23.82ZM414.48,278.88h40.53c.05,0,.74-.68.74-.74v-7.86c0-1.96-2.62-4.33-4.51-4.82-3.74-.96-27.13-.89-31.55-.29-1.53.21-5.2,2-5.2,3.64v10.07Z"/>
    </g>
    <path class="st0" d="M789.28,247.93c.17.83-42.71,55.74-50.38,66.28-1.78,1.47-10.07,1.51-11.99.26l-18.43-23.33c-1.97-1.51-4.01-1.49-7.36-1.44-14.37.2-28.76-.29-43.13.09-8.4,2.5-7.78,15.72.9,17.54l44.57.13c1.04.6,6.65,6.92,5.75,7.76-14.38-.46-29.15.62-43.49.02-5.38-.22-10.84-.11-15.21-3.46-11.09-8.5-6.89-28.23,7.84-29.49,16.16-1.39,33.84-.31,50.63,0,3.03.26,4.95,1.11,7.12,3.2,5.55,5.33,10.29,14.65,15.71,20.15,1.7,1.72,1.19.31,1.94-.47,17.35-18.16,32.69-38.38,50.09-56.54,1.43-1.3,3.64-.52,5.43-.7Z"/>
    <g>
      <path class="st3" d="M702.82,238.6v-9.82c3.81-.76,8.12-.59,12.06-.51,9.99.21,24.17,1.19,33.89.03,1.72-.21,4.66-1.93,4.66-3.7v-9.58h-40.53c-4.63,0-12.04-6.76-12.04-11.54v-44.21c0-.05.68-.74.74-.74h12.77c.62,0,1.17,1.54,1.25,2.19,1.61,11.97-1.46,27.64-.04,39.82.36,3.08,2.39,3.92,5.15,4.18,9.66.9,20.68-.73,30.5,0,.62.19,2.19-.85,2.19-1.25v-44.21c0-.05.68-.74.74-.74h13.26c.05,0,.74.68.74.74v66.32c0,7.27-8.74,13.51-15.47,13.51h-48.63c-.16,0-.75-.65-1.23-.49Z"/>
      <path class="st3" d="M459.67,215.02l-52.82.02c-12.17-1.24-13.84-10.93-13.02-21.4.59-7.46,6.4-13,14.02-13h37.58v-8.11c0-1.19-3.61-4.09-5.16-3.68l-44.11-.1c-1.92-.56-2.35-9.88.41-10.2,15.67.86,32.63-1.2,48.15-.03,5.97.45,11.57,2.86,13.92,8.68.21.53,1.04,2.62,1.04,2.88v44.95ZM445.42,191.44h-34.14c-1.39,0-3.04,2.21-3.21,3.66-.6,4.94-.51,9.09,5.16,9.62,7.53.7,21.91.6,29.52,0,.95-.07,1.78-.29,2.68-.52v-12.77Z"/>
      <path class="st3" d="M689.56,215.02h-53.79c-2.42,0-7.59-3.14-9.09-5.16-4.15-5.56-4.01-21.74,2.21-26.28,1.78-1.3,6.74-2.95,8.84-2.95h37.58v-8.6c0-1.47-3.25-3.04-4.66-3.2-13.26-1.59-29.67,1.19-43.26.04-.62.19-2.19-.85-2.19-1.25v-8.35c0-.05.68-.74.74-.74h50.6c4.7,0,13.02,5.99,13.02,11.05v45.44ZM675.81,202.98c.47-2.59,0-7.85,0-10.81,0-.05-.68-.74-.74-.74h-33.89c-.12,0-1.87.96-2.06,1.14-2.01,1.84-2.19,11.5,2.29,11.89,10-.37,21.91,1.29,31.71.23,1.16-.13,2.45-.38,2.69-1.72Z"/>
      <path class="st3" d="M561.84,138.88v19.65h38.56c1.66,0,6.41,1.86,7.86,2.95,1.71,1.28,5.16,6.11,5.16,8.1v45.44h-14.25v-41.51c0-2.3-2.93-4.41-5.15-4.68-8.9-1.07-19.87.83-29,0-1.07-.24-3.18,1.31-3.18,2.22v43.96h-13.51c-.05,0-.74-.68-.74-.74v-75.4h14.25Z"/>
      <path class="st3" d="M536.79,168.35c-.9.23-1.73.44-2.68.52-14,1.1-29.88-1.32-43.77-.05-2.68.25-4.82,1.95-5.15,4.68-.66,5.58-.66,21.45,0,27.04.2,1.74,1.95,4.16,3.7,4.16h47.16c.05,0,.74.68.74.74v8.84c0,.05-.68.74-.74.74h-53.54c-1.15,0-5.77-2.12-6.88-2.95-3.14-2.35-4.85-6.2-5.18-10.05-.51-5.97-.76-29.35.76-34.15,1.02-3.23,3.79-6.47,6.93-7.81.82-.35,4.73-1.53,5.35-1.53h52.56c.05,0,.74.68.74.74v9.09Z"/>
      <g>
        <path class="st0" d="M358.48,210.11c-4.49-9.85-11.53-19.52-16.21-29.47l-34.9-40.5-.47-1.74h18.91c11.14,12.47,22.6,24.82,32.29,38.45.87,10.99.14,22.21.38,33.27Z"/>
        <path class="st3" d="M374.44,138.39h16.7c1.72,0-.38,2.71-.75,3.18-8.44,10.71-19.38,20.33-27.49,31.46l-1.24.76-7.1-8.15c-.48-1.07-2.24-2.16-1.93-3.33l18.86-21.47,2.95-2.45Z"/>
        <path class="st3" d="M358.48,210.11c.36.8.76,2.95.98,3.93h-19.16c.51-2.31,1.71-4.2,1.96-6.64.85-8.44-.62-18.19,0-26.77,4.68,9.95,11.72,19.63,16.21,29.47Z"/>
      </g>
    </g>
  </g>
  <g>
    <g>
      <g>
        <circle class="st0" cx="105.95" cy="74.14" r="31.56"/>
        <g>
          <path class="st5" d="M84.03,200.37s67.17-92.36,74.28-92.36c6.35,0,76.49,92.36,76.49,92.36H84.03Z"/>
          <path class="st1" d="M84.03,200.37s31.6-63.05,36.26-63.05c5.07,0-8.21,63.05-8.21,63.05h-28.05Z"/>
        </g>
        <path class="st4" d="M50.72,199.05h217.39v66.62c0,9.35-3.51,18.7-10.52,28.05l-77.14,94.67c-8.18,9.35-15.19,14.03-21.04,14.03s-12.86-4.68-21.04-14.03l-77.14-94.67c-7.01-9.35-10.52-18.7-10.52-28.05v-66.62Z"/>
      </g>
      <g>
        <line class="st7" x1="232.55" y1="202.33" x2="252.43" y2="224.04"/>
        <line class="st7" x1="252.43" y1="224.04" x2="140.47" y2="280.33"/>
        <line class="st7" x1="252.43" y1="224.04" x2="218.47" y2="304.46"/>
        <circle class="st2" cx="252.43" cy="224.04" r="7.53"/>
        <circle class="st9" cx="140.47" cy="280.33" r="7.06"/>
        <circle class="st9" cx="218.47" cy="304.46" r="6.59"/>
        <circle class="st9" cx="161.18" cy="354.63" r="5.65"/>
        <circle class="st9" cx="132.69" cy="350.48" r="4.71"/>
        <circle class="st8" cx="75.75" cy="252.88" r="7.53"/>
        <line class="st7" x1="77.7" y1="204.01" x2="76.82" y2="251.41"/>
        <line class="st7" x1="164.29" y1="211.12" x2="140.47" y2="280.33"/>
        <line class="st7" x1="75.75" y1="252.88" x2="140.47" y2="280.33"/>
        <line class="st7" x1="140.47" y1="281.14" x2="132.69" y2="351.08"/>
        <line class="st7" x1="75.75" y1="252.88" x2="132.69" y2="351.08"/>
        <line class="st7" x1="218.47" y1="304.46" x2="161.18" y2="354.63"/>
        <line class="st7" x1="140.47" y1="281.14" x2="218.47" y2="304.46"/>
        <line class="st7" x1="161.18" y1="354.63" x2="158.78" y2="401.19"/>
        <line class="st7" x1="218.47" y1="304.46" x2="158.78" y2="401.19"/>
        <line class="st7" x1="158.78" y1="401.19" x2="132.69" y2="351.08"/>
        <line class="st7" x1="132.69" y1="351.08" x2="161.18" y2="354.63"/>
      </g>
    </g>
    <g>
      <path class="st3" d="M259.65,102.39h-21.95c-.81.87-1.61,1.73-2.42,2.6v29.56h25.35c3.88,0,6.9-3.73,7.21-7.39.38-4.44.35-12.52,0-16.98-.35-4.47-3.58-7.79-8.19-7.79ZM261.9,126.74c.03,1.12-1.62,2.88-2.65,2.88h-18.05v-22.29h17.26c.15,0,1.45.39,1.68.49,1.11.5,1.68,1.79,1.78,2.95.45,5.07-.34,10.83-.03,15.97Z"/>
      <g>
        <path class="st0" d="M218.64,132.88c-1.91-4.19-4.9-8.3-6.89-12.53l-14.84-17.22-.2-.74h8.04c4.74,5.3,9.61,10.55,13.73,16.34.37,4.67.06,9.44.16,14.14Z"/>
        <path class="st3" d="M225.43,102.39h7.1c.73,0-.16,1.15-.32,1.35-3.59,4.55-8.24,8.64-11.68,13.37l-.53.32-3.02-3.46c-.2-.45-.95-.92-.82-1.41l8.02-9.13,1.26-1.04Z"/>
        <path class="st3" d="M218.64,132.88c.15.34.32,1.25.42,1.67h-8.14c.22-.98.73-1.78.83-2.82.36-3.59-.26-7.73,0-11.38,1.99,4.23,4.98,8.34,6.89,12.53Z"/>
      </g>
    </g>
  </g>
  <g>
    <g>
      <line class="st6" x1="293.17" y1="339.9" x2="549.25" y2="339.9"/>
      <circle class="st5" cx="293.17" cy="339.9" r="2.04"/>
    </g>
    <g>
      <line class="st6" x1="586.37" y1="339.9" x2="780.57" y2="339.9"/>
      <circle class="st5" cx="780.57" cy="339.9" r="2.04"/>
    </g>
  </g>
  <g>
    <path class="st3" d="M309.5,363.23l5.17-11.46h1.64l5.19,11.46h-1.75l-1.36-3.07h-5.84l-1.29,3.07h-1.76ZM313.07,358.96h4.8l-2.18-5.03c-.04-.08-.07-.18-.1-.31s-.07-.28-.1-.46h-.04c-.03.16-.06.3-.1.43-.04.13-.07.24-.12.34l-2.15,5.03Z"/>
    <path class="st3" d="M333.77,362.66c-.65.27-1.29.46-1.91.58-.62.12-1.29.18-2.02.18-2.04,0-3.62-.52-4.75-1.57s-1.7-2.43-1.7-4.13c0-1.87.63-3.36,1.9-4.47s2.91-1.67,4.94-1.67c.63,0,1.23.05,1.78.15.55.1,1.13.26,1.73.49l-.58,1.1c-.5-.19-.97-.32-1.44-.4-.46-.08-.97-.12-1.5-.12-1.58,0-2.84.43-3.77,1.3-.93.87-1.4,2.05-1.4,3.54,0,1.4.45,2.52,1.34,3.34.89.83,2.08,1.24,3.55,1.24.54,0,1.08-.05,1.6-.15s1.06-.27,1.6-.5l.63,1.09Z"/>
    <path class="st3" d="M335.79,363.23l5.17-11.46h1.64l5.19,11.46h-1.75l-1.36-3.07h-5.84l-1.29,3.07h-1.76ZM339.36,358.96h4.8l-2.18-5.03c-.04-.08-.07-.18-.1-.31s-.07-.28-.1-.46h-.04c-.03.16-.06.3-.1.43-.04.13-.07.24-.12.34l-2.15,5.03Z"/>
    <path class="st3" d="M350.93,363.23v-11.46h3.72c2.38,0,4.16.46,5.35,1.39,1.19.93,1.78,2.33,1.78,4.19,0,1.77-.66,3.19-1.98,4.26-1.32,1.07-3.09,1.61-5.3,1.61h-3.57ZM352.51,352.99v9.03h2.01c1.77,0,3.14-.4,4.13-1.21s1.48-1.95,1.48-3.42-.46-2.57-1.38-3.3c-.92-.73-2.3-1.1-4.13-1.1h-2.11Z"/>
    <path class="st3" d="M372.74,363.23h-7.15v-11.46h6.85v1.21h-5.27v3.81h4.87v1.21h-4.87v4.01h5.57v1.21Z"/>
    <path class="st3" d="M390.25,363.23h-1.57v-7.69c0-.3.01-.64.03-1.01.02-.37.05-.78.1-1.21h-.04c-.08.26-.15.48-.21.66-.07.19-.13.34-.19.45l-4.61,8.81h-.77l-4.6-8.75c-.06-.13-.13-.29-.2-.49-.07-.2-.14-.43-.21-.69h-.04c.03.23.04.53.06.9s.02.82.02,1.34v7.67h-1.52v-11.46h2.09l4.14,7.99c.16.3.3.57.4.8s.18.42.22.58h.06c.14-.31.26-.59.37-.82s.2-.43.28-.58l4.22-7.96h1.98v11.46Z"/>
    <path class="st3" d="M403.69,351.77l-4.45,7.23v4.24h-1.58v-4.21l-4.34-7.26h1.8l3.02,5.18s.06.11.11.22.13.28.22.48h.03c.03-.09.08-.19.14-.31s.13-.25.22-.39l3.16-5.18h1.67Z"/>
    <path class="st0" d="M415.35,359.97c-.65,0-1.21-.19-1.68-.58-.47-.39-.71-.86-.71-1.42s.24-1.02.71-1.43c.47-.4,1.03-.6,1.68-.6s1.21.2,1.67.6c.46.4.69.88.69,1.43s-.23,1.03-.69,1.42c-.46.39-1.01.58-1.67.58Z"/>
    <path class="st3" d="M427.44,362.36l.77-1.01c.55.3,1.1.53,1.66.66s1.19.21,1.93.21c.82,0,1.5-.16,2.03-.49s.79-.81.79-1.43c0-.56-.22-1.01-.67-1.34-.45-.34-1.18-.66-2.21-.98-1.27-.39-2.21-.83-2.82-1.32-.61-.49-.92-1.13-.92-1.93,0-.94.4-1.7,1.19-2.28s1.84-.87,3.13-.87c.6,0,1.19.05,1.77.16s1.17.29,1.79.53l-.59,1.08c-.51-.2-1.01-.35-1.5-.44-.49-.09-1.01-.14-1.58-.14-.81,0-1.45.16-1.92.48-.47.32-.71.77-.71,1.34,0,.5.22.9.65,1.2.43.3,1.15.6,2.16.91,1.35.42,2.33.88,2.92,1.39s.88,1.2.88,2.07c0,.93-.39,1.7-1.18,2.32s-1.9.93-3.33.93c-.8,0-1.54-.08-2.22-.25-.68-.17-1.35-.44-2.02-.82Z"/>
    <path class="st3" d="M447.95,352.99h-3.89v10.25h-1.58v-10.25h-3.88v-1.21h9.36v1.21Z"/>
    <path class="st3" d="M461.11,358.59c0,1.62-.43,2.82-1.28,3.63-.85.8-2.14,1.21-3.85,1.21s-2.86-.39-3.68-1.16c-.82-.77-1.23-1.93-1.23-3.49v-7.01h1.58v6.92c0,1.17.29,2.05.88,2.64.58.59,1.46.88,2.62.88s1.97-.28,2.54-.85c.56-.57.84-1.42.84-2.55v-7.04h1.58v6.82Z"/>
    <path class="st3" d="M465.64,363.23v-11.46h3.72c2.38,0,4.16.46,5.35,1.39,1.19.93,1.78,2.33,1.78,4.19,0,1.77-.66,3.19-1.98,4.26-1.32,1.07-3.09,1.61-5.3,1.61h-3.57ZM467.22,352.99v9.03h2.01c1.77,0,3.14-.4,4.13-1.21s1.48-1.95,1.48-3.42-.46-2.57-1.38-3.3c-.92-.73-2.3-1.1-4.13-1.1h-2.11Z"/>
    <path class="st3" d="M481.88,363.23h-1.58v-11.46h1.58v11.46Z"/>
    <path class="st3" d="M492.02,363.43c-1.91,0-3.45-.54-4.6-1.61s-1.73-2.46-1.73-4.18c0-1.84.59-3.31,1.76-4.41s2.77-1.65,4.79-1.65c1.86,0,3.36.53,4.5,1.6,1.14,1.07,1.71,2.46,1.71,4.18,0,1.87-.58,3.35-1.75,4.44-1.17,1.09-2.73,1.63-4.68,1.63ZM492.02,362.22c1.48,0,2.65-.41,3.5-1.23s1.28-1.97,1.28-3.45-.41-2.68-1.24-3.51c-.83-.83-1.97-1.24-3.42-1.24s-2.57.43-3.45,1.3c-.88.87-1.33,2.01-1.33,3.42s.43,2.55,1.29,3.41c.86.86,1.99,1.29,3.37,1.29Z"/>
    <path class="st0" d="M510.86,359.97c-.65,0-1.21-.19-1.68-.58-.47-.39-.71-.86-.71-1.42s.24-1.02.71-1.43c.47-.4,1.03-.6,1.68-.6s1.21.2,1.67.6c.46.4.69.88.69,1.43s-.23,1.03-.69,1.42c-.46.39-1.01.58-1.67.58Z"/>
    <path class="st3" d="M533.61,362.66c-.65.27-1.29.46-1.91.58-.62.12-1.29.18-2.02.18-2.04,0-3.62-.52-4.75-1.57s-1.7-2.43-1.7-4.13c0-1.87.63-3.36,1.9-4.47s2.91-1.67,4.94-1.67c.63,0,1.23.05,1.78.15.55.1,1.13.26,1.73.49l-.58,1.1c-.5-.19-.97-.32-1.44-.4-.46-.08-.97-.12-1.5-.12-1.58,0-2.84.43-3.77,1.3-.93.87-1.4,2.05-1.4,3.54,0,1.4.45,2.52,1.34,3.34.89.83,2.08,1.24,3.55,1.24.54,0,1.08-.05,1.6-.15s1.06-.27,1.6-.5l.63,1.09Z"/>
    <path class="st3" d="M542.12,363.43c-1.91,0-3.45-.54-4.6-1.61s-1.73-2.46-1.73-4.18c0-1.84.59-3.31,1.76-4.41s2.77-1.65,4.79-1.65c1.86,0,3.36.53,4.5,1.6,1.14,1.07,1.71,2.46,1.71,4.18,0,1.87-.58,3.35-1.75,4.44-1.17,1.09-2.73,1.63-4.68,1.63ZM542.12,362.22c1.48,0,2.65-.41,3.5-1.23s1.28-1.97,1.28-3.45-.41-2.68-1.24-3.51c-.83-.83-1.97-1.24-3.42-1.24s-2.57.43-3.45,1.3c-.88.87-1.33,2.01-1.33,3.42s.43,2.55,1.29,3.41c.86.86,1.99,1.29,3.37,1.29Z"/>
    <path class="st3" d="M561.92,363.23h-1.88l-2.31-3.25c-.43-.61-.8-1-1.11-1.17-.31-.17-.68-.26-1.12-.26h-1.55v4.68h-1.58v-11.46h4.03c1.17,0,2.15.26,2.93.79.78.53,1.17,1.31,1.17,2.33,0,.81-.25,1.49-.74,2.04-.5.55-1.18.95-2.04,1.19v.03c.28.14.53.3.74.47.21.17.44.42.68.75l2.79,3.85ZM553.94,352.99v4.35h2.14c.78,0,1.44-.22,1.96-.65s.79-.99.79-1.68c0-.61-.23-1.1-.7-1.47-.47-.37-1.14-.55-2.03-.55h-2.16Z"/>
    <path class="st3" d="M572.19,363.23h-7.15v-11.46h6.85v1.21h-5.27v3.81h4.87v1.21h-4.87v4.01h5.57v1.21Z"/>
    <path class="st0" d="M584.54,359.97c-.65,0-1.21-.19-1.68-.58-.47-.39-.71-.86-.71-1.42s.24-1.02.71-1.43c.47-.4,1.03-.6,1.68-.6s1.21.2,1.67.6c.46.4.69.88.69,1.43s-.23,1.03-.69,1.42c-.46.39-1.01.58-1.67.58Z"/>
    <path class="st3" d="M604.79,363.23h-7v-11.46h1.58v10.25h5.42v1.21Z"/>
    <path class="st3" d="M607.02,363.23l5.17-11.46h1.64l5.19,11.46h-1.75l-1.36-3.07h-5.84l-1.29,3.07h-1.76ZM610.59,358.96h4.8l-2.18-5.03c-.04-.08-.07-.18-.1-.31s-.07-.28-.1-.46h-.04c-.03.16-.06.3-.1.43-.04.13-.07.24-.12.34l-2.15,5.03Z"/>
    <path class="st3" d="M622.16,363.23v-11.46h3.85c1.17,0,2.09.24,2.77.71.68.47,1.02,1.11,1.02,1.92,0,.65-.21,1.21-.62,1.69s-.98.82-1.71,1.02v.03c.91.09,1.64.38,2.18.88.54.49.82,1.13.82,1.92,0,.98-.41,1.77-1.24,2.38s-1.87.91-3.13.91h-3.93ZM623.74,352.99v3.7h1.62c.87,0,1.55-.18,2.04-.53.5-.35.74-.85.74-1.5,0-.56-.22-.98-.65-1.25s-1.08-.42-1.93-.42h-1.83ZM623.74,357.89v4.12h2.14c.93,0,1.65-.19,2.16-.56s.77-.88.77-1.54-.27-1.18-.81-1.52c-.54-.34-1.36-.51-2.44-.51h-1.82Z"/>
    <path class="st3" d="M633.19,362.36l.77-1.01c.55.3,1.1.53,1.66.66s1.19.21,1.93.21c.82,0,1.5-.16,2.03-.49s.79-.81.79-1.43c0-.56-.22-1.01-.67-1.34-.45-.34-1.18-.66-2.21-.98-1.27-.39-2.21-.83-2.82-1.32-.61-.49-.92-1.13-.92-1.93,0-.94.4-1.7,1.19-2.28s1.84-.87,3.13-.87c.6,0,1.19.05,1.77.16s1.17.29,1.79.53l-.59,1.08c-.51-.2-1.01-.35-1.5-.44-.49-.09-1.01-.14-1.58-.14-.81,0-1.45.16-1.92.48-.47.32-.71.77-.71,1.34,0,.5.22.9.65,1.2.43.3,1.15.6,2.16.91,1.35.42,2.33.88,2.92,1.39s.88,1.2.88,2.07c0,.93-.39,1.7-1.18,2.32s-1.9.93-3.33.93c-.8,0-1.54-.08-2.22-.25-.68-.17-1.35-.44-2.02-.82Z"/>
    <path class="st0" d="M654.35,359.97c-.65,0-1.21-.19-1.68-.58-.47-.39-.71-.86-.71-1.42s.24-1.02.71-1.43c.47-.4,1.03-.6,1.68-.6s1.21.2,1.67.6c.46.4.69.88.69,1.43s-.23,1.03-.69,1.42c-.46.39-1.01.58-1.67.58Z"/>
    <path class="st3" d="M677.16,363.23h-1.88l-2.31-3.25c-.43-.61-.8-1-1.11-1.17-.31-.17-.68-.26-1.12-.26h-1.55v4.68h-1.58v-11.46h4.03c1.17,0,2.15.26,2.93.79.78.53,1.17,1.31,1.17,2.33,0,.81-.25,1.49-.74,2.04-.5.55-1.18.95-2.04,1.19v.03c.28.14.53.3.74.47.21.17.44.42.68.75l2.79,3.85ZM669.18,352.99v4.35h2.14c.78,0,1.44-.22,1.96-.65s.79-.99.79-1.68c0-.61-.23-1.1-.7-1.47-.47-.37-1.14-.55-2.03-.55h-2.16Z"/>
    <path class="st3" d="M687.43,363.23h-7.15v-11.46h6.85v1.21h-5.27v3.81h4.87v1.21h-4.87v4.01h5.57v1.21Z"/>
    <path class="st3" d="M690.01,362.36l.77-1.01c.55.3,1.1.53,1.66.66s1.19.21,1.93.21c.82,0,1.5-.16,2.03-.49s.79-.81.79-1.43c0-.56-.22-1.01-.67-1.34-.45-.34-1.18-.66-2.21-.98-1.27-.39-2.21-.83-2.82-1.32-.61-.49-.92-1.13-.92-1.93,0-.94.4-1.7,1.19-2.28s1.84-.87,3.13-.87c.6,0,1.19.05,1.77.16s1.17.29,1.79.53l-.59,1.08c-.51-.2-1.01-.35-1.5-.44-.49-.09-1.01-.14-1.58-.14-.81,0-1.45.16-1.92.48-.47.32-.71.77-.71,1.34,0,.5.22.9.65,1.2.43.3,1.15.6,2.16.91,1.35.42,2.33.88,2.92,1.39s.88,1.2.88,2.07c0,.93-.39,1.7-1.18,2.32s-1.9.93-3.33.93c-.8,0-1.54-.08-2.22-.25-.68-.17-1.35-.44-2.02-.82Z"/>
    <path class="st3" d="M709.72,363.23h-7.15v-11.46h6.85v1.21h-5.27v3.81h4.87v1.21h-4.87v4.01h5.57v1.21Z"/>
    <path class="st3" d="M711.91,363.23l5.17-11.46h1.64l5.19,11.46h-1.75l-1.36-3.07h-5.84l-1.29,3.07h-1.76ZM715.48,358.96h4.8l-2.18-5.03c-.04-.08-.07-.18-.1-.31s-.07-.28-.1-.46h-.04c-.03.16-.06.3-.1.43-.04.13-.07.24-.12.34l-2.15,5.03Z"/>
    <path class="st3" d="M736.61,363.23h-1.88l-2.31-3.25c-.43-.61-.8-1-1.11-1.17-.31-.17-.68-.26-1.12-.26h-1.55v4.68h-1.58v-11.46h4.03c1.17,0,2.15.26,2.93.79.78.53,1.17,1.31,1.17,2.33,0,.81-.25,1.49-.74,2.04-.5.55-1.18.95-2.04,1.19v.03c.28.14.53.3.74.47.21.17.44.42.68.75l2.79,3.85ZM728.63,352.99v4.35h2.14c.78,0,1.44-.22,1.96-.65s.79-.99.79-1.68c0-.61-.23-1.1-.7-1.47-.47-.37-1.14-.55-2.03-.55h-2.16Z"/>
    <path class="st3" d="M748.96,362.66c-.65.27-1.29.46-1.91.58-.62.12-1.29.18-2.02.18-2.04,0-3.62-.52-4.75-1.57s-1.7-2.43-1.7-4.13c0-1.87.63-3.36,1.9-4.47s2.91-1.67,4.94-1.67c.63,0,1.23.05,1.78.15.55.1,1.13.26,1.73.49l-.58,1.1c-.5-.19-.97-.32-1.44-.4-.46-.08-.97-.12-1.5-.12-1.58,0-2.84.43-3.77,1.3-.93.87-1.4,2.05-1.4,3.54,0,1.4.45,2.52,1.34,3.34.89.83,2.08,1.24,3.55,1.24.54,0,1.08-.05,1.6-.15s1.06-.27,1.6-.5l.63,1.09Z"/>
    <path class="st3" d="M762.68,363.23h-1.58v-5.23h-6.98v5.23h-1.58v-11.46h1.58v5.03h6.98v-5.03h1.58v11.46Z"/>
  </g>
</svg>