<?xml version="1.0" encoding="UTF-8"?>
<svg id="Capa_1" xmlns="http://www.w3.org/2000/svg" version="1.1" viewBox="0 0 445 445">
  <!-- Generator: Adobe Illustrator 30.0.0, SVG Export Plug-In . SVG Version: 2.1.1 Build 123)  -->
  <defs>
    <style>
      .st0 {
        fill: #e8a838;
      }

      .st1 {
        fill: #d8eff4;
      }

      .st2 {
        fill: none;
        stroke: #fff;
        stroke-miterlimit: 10;
        stroke-width: .65px;
      }

      .st3 {
        fill: #5ea9d5;
      }

      .st4 {
        fill: #1b3a6b;
      }

      .st5 {
        fill: #a8dce8;
      }

      .st6 {
        fill: #fefefe;
      }

      .st7 {
        fill: #feffff;
      }
    </style>
  </defs>
  <g>
    <path class="st0" d="M114.44,418.85v-35.91s.31-.33.33-.33h27.13c5.2,0,8.84,3.74,9.24,8.77s.43,14.14,0,19.14c-.35,4.13-3.75,8.33-8.12,8.33h-28.57ZM121.11,413.29h20.35c1.15,0,3.02-1.98,2.98-3.24-.35-5.8.54-12.28.03-18-.12-1.31-.76-2.77-2.01-3.33-.25-.11-1.73-.55-1.89-.55h-19.46v25.13Z"/>
    <path class="st4" d="M292.54,384.16v-4.45c1.73-.34,3.67-.27,5.46-.23,4.52.09,10.94.54,15.34.01.78-.09,2.11-.87,2.11-1.67v-4.34h-18.34c-2.1,0-5.45-3.06-5.45-5.23v-20.01s.31-.33.33-.33h5.78c.28,0,.53.7.57.99.73,5.42-.66,12.51-.02,18.03.16,1.39,1.08,1.78,2.33,1.89,4.37.41,9.36-.33,13.81,0,.28.09.99-.39.99-.57v-20.01s.31-.33.33-.33h6s.33.31.33.33v30.02c0,3.29-3.96,6.11-7,6.11h-22.01c-.07,0-.34-.29-.56-.22Z"/>
    <path class="st4" d="M234.95,418.63v11.45s-.31.33-.33.33h-5.78s-.33-.31-.33-.33v-32.24c0-.43.51-2.13.73-2.61,1.16-2.62,3.86-3.31,6.5-3.5,5.07-.37,14.13-.41,19.1.24,2.88.37,4.79,2.85,5.03,5.64.33,3.85.37,11.76-.01,15.57-.36,3.51-3.01,5.37-6.34,5.67-4.93.44-12.07.18-17.13.01-.5-.02-.94-.23-1.44-.23ZM237.34,396.23c-1.34.19-2.07.71-2.38,2.07l.09,15.44c.2.33,1.36.62,1.78.66,3.26.36,10,.26,13.35,0,1.99-.15,3.24-.61,3.45-2.78.29-3.11.29-9.58,0-12.69-.16-1.69-1.08-2.59-2.79-2.77-2.83-.3-10.76-.34-13.51.06Z"/>
    <path class="st4" d="M197.93,418.85c-3.18-.34-5.53-2.5-5.86-5.7-.39-3.79-.37-11.71-.02-15.53s3.03-5.6,6.78-5.89c4.8-.37,12.75-.36,17.56,0,2.24.17,4.59.8,5.86,2.81.22.35.93,2.11.93,2.41v9.78s-.31.33-.33.33h-24.24s-.33.31-.33.33v4c0,.27.38,1.59.56,1.88.88,1.38,4.43.86,6,.89,3.18.06,6.39.02,9.54,0,2.31-.02,5.63-.26,7.8,0,.22.03.77.1.77.34v4s-.31.33-.33.33h-24.68ZM198.26,402.4h18.34s.33-.31.33-.33v-3.78c0-1.1-1.34-1.96-2.35-2.09-2.15-.29-12.6-.31-14.47.17-.77.2-1.85,1.13-1.85,1.93v4.11Z"/>
    <path class="st4" d="M186.7,407.07h-24.35s-.33.31-.33.33v4.89c0,.67,1.19,1.76,1.9,1.88,2.58.41,7.17,0,10,0,1.11,0,2.21,0,3.32,0,1.46,0,8.26-.23,9.01.12.11.05.45.4.45.44v3.78s-.31.33-.33.33h-24.9c-2.56,0-5.34-2.72-5.65-5.25-.61-5.09.4-11.22-.02-16.43.43-3.77,3.31-5.18,6.78-5.45,4.15-.32,15.77-.53,19.51.27,1.71.37,4.61,2.42,4.61,4.28v10.78ZM162.02,402.4h18.34s.33-.31.33-.33v-3.56c0-.89-1.18-1.96-2.04-2.18-1.69-.44-12.28-.4-14.28-.13-.69.09-2.35.9-2.35,1.65v4.56Z"/>
    <path class="st4" d="M182.48,373.49h-23.91c-5.51-.55-6.27-4.94-5.89-9.68.27-3.38,2.9-5.88,6.35-5.88h17.01v-3.67c0-.54-1.63-1.85-2.33-1.67l-19.97-.04c-.87-.26-1.06-4.47.18-4.62,7.09.39,14.77-.54,21.79-.01,2.7.2,5.24,1.3,6.3,3.93.1.24.47,1.18.47,1.31v20.35ZM176.03,362.82h-15.45c-.63,0-1.38,1-1.46,1.66-.27,2.24-.23,4.11,2.34,4.35,3.41.32,9.92.27,13.36,0,.43-.03.8-.13,1.21-.23v-5.78Z"/>
    <path class="st4" d="M286.54,373.49h-24.35c-1.09,0-3.43-1.42-4.11-2.34-1.88-2.52-1.81-9.84,1-11.89.81-.59,3.05-1.34,4-1.34h17.01v-3.89c0-.67-1.47-1.37-2.11-1.45-6-.72-13.43.54-19.58.02-.28.09-.99-.39-.99-.57v-3.78s.31-.33.33-.33h22.9c2.13,0,5.89,2.71,5.89,5v20.57ZM280.31,368.04c.21-1.17,0-3.55,0-4.89,0-.02-.31-.33-.33-.33h-15.34c-.05,0-.85.44-.93.51-.91.83-.99,5.2,1.04,5.38,4.53-.17,9.92.58,14.35.1.53-.06,1.11-.17,1.22-.78Z"/>
    <path class="st4" d="M228.73,339.03v8.89h17.45c.75,0,2.9.84,3.56,1.33.77.58,2.34,2.76,2.34,3.67v20.57h-6.45v-18.79c0-1.04-1.32-2-2.33-2.12-4.03-.49-8.99.38-13.13,0-.49-.11-1.44.59-1.44,1v19.9h-6.11s-.33-.31-.33-.33v-34.13h6.45Z"/>
    <path class="st0" d="M331.67,388.39c.08.38-19.33,25.23-22.8,30-.8.67-4.56.68-5.43.12l-8.34-10.56c-.89-.69-1.81-.67-3.33-.65-6.51.09-13.02-.13-19.52.04-3.8,1.13-3.52,7.12.41,7.94l20.17.06c.47.27,3.01,3.13,2.6,3.51-6.51-.21-13.19.28-19.69.01-2.44-.1-4.91-.05-6.88-1.57-5.02-3.85-3.12-12.78,3.55-13.35,7.32-.63,15.32-.14,22.92,0,1.37.12,2.24.5,3.22,1.45,2.51,2.41,4.66,6.63,7.11,9.12.77.78.54.14.88-.21,7.85-8.22,14.8-17.37,22.67-25.59.65-.59,1.65-.24,2.46-.32Z"/>
    <path class="st4" d="M217.39,352.37c-.41.1-.78.2-1.21.23-6.34.5-13.52-.6-19.81-.02-1.21.11-2.18.88-2.33,2.12-.3,2.53-.3,9.71,0,12.24.09.79.88,1.88,1.67,1.88h21.35s.33.31.33.33v4s-.31.33-.33.33h-24.24c-.52,0-2.61-.96-3.11-1.33-1.42-1.06-2.19-2.8-2.34-4.55-.23-2.7-.34-13.28.34-15.46.46-1.46,1.71-2.93,3.14-3.53.37-.16,2.14-.69,2.42-.69h23.79s.33.31.33.33v4.11Z"/>
    <path class="st0" d="M136.67,371.27c-2.03-4.46-5.22-8.84-7.34-13.34l-15.8-18.33-.21-.79h8.56c5.04,5.64,10.23,11.24,14.62,17.4.39,4.98.06,10.05.17,15.06Z"/>
    <path class="st4" d="M143.9,338.8h7.56c.78,0-.17,1.23-.34,1.44-3.82,4.85-8.77,9.2-12.44,14.24l-.56.34-3.22-3.69c-.22-.48-1.01-.98-.87-1.51l8.54-9.72,1.34-1.11Z"/>
    <path class="st4" d="M136.67,371.27c.16.36.34,1.34.44,1.78h-8.67c.23-1.05.77-1.9.89-3,.39-3.82-.28-8.23,0-12.12,2.12,4.5,5.3,8.88,7.34,13.34Z"/>
  </g>
  <g>
    <g>
      <g>
        <circle class="st0" cx="179.59" cy="56.69" r="25.33"/>
        <g>
          <path class="st5" d="M162,158s53.91-74.12,59.61-74.12c5.1,0,61.39,74.12,61.39,74.12h-121Z"/>
          <path class="st1" d="M162,158s25.36-50.6,29.1-50.6c4.07,0-6.58,50.6-6.58,50.6h-22.51Z"/>
        </g>
        <path class="st4" d="M135.27,156.94h174.46v53.46c0,7.5-2.81,15.01-8.44,22.51l-61.91,75.98c-6.57,7.5-12.19,11.26-16.88,11.26s-10.32-3.75-16.88-11.26l-61.91-75.98c-5.63-7.5-8.44-15.01-8.44-22.51v-53.46Z"/>
      </g>
      <g>
        <line class="st2" x1="281.19" y1="159.57" x2="297.14" y2="176.99"/>
        <line class="st2" x1="297.14" y1="176.99" x2="207.3" y2="222.17"/>
        <line class="st2" x1="297.14" y1="176.99" x2="269.89" y2="241.53"/>
        <circle class="st3" cx="297.14" cy="176.99" r="6.04"/>
        <circle class="st7" cx="207.3" cy="222.17" r="5.67"/>
        <circle class="st7" cx="269.89" cy="241.53" r="5.29"/>
        <circle class="st7" cx="223.91" cy="281.8" r="4.53"/>
        <circle class="st7" cx="201.05" cy="278.47" r="3.78"/>
        <circle class="st6" cx="155.35" cy="200.14" r="6.04"/>
        <line class="st2" x1="156.92" y1="160.92" x2="156.21" y2="198.96"/>
        <line class="st2" x1="226.41" y1="166.62" x2="207.3" y2="222.17"/>
        <line class="st2" x1="155.35" y1="200.14" x2="207.3" y2="222.17"/>
        <line class="st2" x1="207.3" y1="222.82" x2="201.05" y2="278.94"/>
        <line class="st2" x1="155.35" y1="200.14" x2="201.05" y2="278.94"/>
        <line class="st2" x1="269.89" y1="241.53" x2="223.91" y2="281.8"/>
        <line class="st2" x1="207.3" y1="222.82" x2="269.89" y2="241.53"/>
        <line class="st2" x1="223.91" y1="281.8" x2="221.99" y2="319.16"/>
        <line class="st2" x1="269.89" y1="241.53" x2="221.99" y2="319.16"/>
        <line class="st2" x1="221.99" y1="319.16" x2="201.05" y2="278.94"/>
        <line class="st2" x1="201.05" y1="278.94" x2="223.91" y2="281.8"/>
      </g>
    </g>
    <g>
      <path class="st4" d="M302.94,79.37h-17.62c-.65.7-1.29,1.39-1.94,2.09v23.72h20.35c3.11,0,5.53-2.99,5.79-5.93.3-3.56.28-10.05,0-13.63-.28-3.59-2.88-6.25-6.58-6.25ZM304.74,98.91c.02.9-1.3,2.31-2.12,2.31h-14.49v-17.89h13.85c.12,0,1.17.31,1.35.39.89.4,1.35,1.44,1.43,2.37.36,4.07-.27,8.69-.02,12.82Z"/>
      <g>
        <path class="st0" d="M270.03,103.83c-1.53-3.36-3.93-6.66-5.53-10.06l-11.91-13.82-.16-.59h6.45c3.8,4.25,7.71,8.47,11.02,13.12.3,3.75.05,7.58.13,11.35Z"/>
        <path class="st4" d="M275.47,79.37h5.7c.59,0-.13.92-.26,1.08-2.88,3.65-6.61,6.93-9.38,10.73l-.42.26-2.42-2.78c-.16-.36-.76-.74-.66-1.14l6.43-7.33,1.01-.84Z"/>
        <path class="st4" d="M270.03,103.83c.12.27.26,1.01.34,1.34h-6.54c.17-.79.58-1.43.67-2.26.29-2.88-.21-6.2,0-9.13,1.6,3.39,4,6.7,5.53,10.06Z"/>
      </g>
    </g>
  </g>
</svg>