<?xml version="1.0" encoding="UTF-8"?>
<svg id="Capa_1" xmlns="http://www.w3.org/2000/svg" version="1.1" viewBox="0 0 445 445">
  <!-- Generator: Adobe Illustrator 30.0.0, SVG Export Plug-In . SVG Version: 2.1.1 Build 123)  -->
  <defs>
    <style>
      .st0 {
        fill: #e8a838;
      }

      .st1 {
        fill: #d8eff4;
      }

      .st2 {
        fill: none;
        stroke: #fff;
        stroke-miterlimit: 10;
        stroke-width: .94px;
      }

      .st3 {
        fill: #5ea9d5;
      }

      .st4 {
        fill: #1b3a6b;
      }

      .st5 {
        fill: #a8dce8;
      }

      .st6 {
        fill: #fefefe;
      }

      .st7 {
        fill: #feffff;
      }
    </style>
  </defs>
  <g>
    <g>
      <circle class="st0" cx="160.98" cy="51.82" r="36.3"/>
      <g>
        <path class="st5" d="M135.77,197.04s77.28-106.26,85.46-106.26c7.3,0,88,106.26,88,106.26h-173.46Z"/>
        <path class="st1" d="M135.77,197.04s36.36-72.54,41.71-72.54c5.84,0-9.44,72.54-9.44,72.54h-32.27Z"/>
      </g>
      <path class="st4" d="M97.45,195.52h250.1v76.64c0,10.76-4.03,21.51-12.1,32.27l-88.74,108.91c-9.41,10.76-17.48,16.14-24.2,16.14s-14.79-5.38-24.2-16.14l-88.74-108.91c-8.07-10.76-12.1-21.51-12.1-32.27v-76.64Z"/>
    </g>
    <g>
      <line class="st2" x1="306.63" y1="199.29" x2="329.5" y2="224.27"/>
      <line class="st2" x1="329.5" y1="224.27" x2="200.7" y2="289.03"/>
      <line class="st2" x1="329.5" y1="224.27" x2="290.44" y2="316.79"/>
      <circle class="st3" cx="329.5" cy="224.27" r="8.66"/>
      <circle class="st7" cx="200.7" cy="289.03" r="8.12"/>
      <circle class="st7" cx="290.44" cy="316.79" r="7.58"/>
      <circle class="st7" cx="224.53" cy="374.51" r="6.5"/>
      <circle class="st7" cx="191.75" cy="369.74" r="5.41"/>
      <circle class="st6" cx="126.24" cy="257.45" r="8.66"/>
      <line class="st2" x1="128.48" y1="201.23" x2="127.48" y2="255.76"/>
      <line class="st2" x1="228.1" y1="209.41" x2="200.7" y2="289.03"/>
      <line class="st2" x1="126.24" y1="257.45" x2="200.7" y2="289.03"/>
      <line class="st2" x1="200.7" y1="289.96" x2="191.75" y2="370.42"/>
      <line class="st2" x1="126.24" y1="257.45" x2="191.75" y2="370.42"/>
      <line class="st2" x1="290.44" y1="316.79" x2="224.53" y2="374.51"/>
      <line class="st2" x1="200.7" y1="289.96" x2="290.44" y2="316.79"/>
      <line class="st2" x1="224.53" y1="374.51" x2="221.77" y2="428.07"/>
      <line class="st2" x1="290.44" y1="316.79" x2="221.77" y2="428.07"/>
      <line class="st2" x1="221.77" y1="428.07" x2="191.75" y2="370.42"/>
      <line class="st2" x1="191.75" y1="370.42" x2="224.53" y2="374.51"/>
    </g>
  </g>
  <g>
    <path class="st4" d="M337.81,84.32h-25.25c-.93,1-1.85,1.99-2.78,2.99v34.01h29.17c4.46,0,7.93-4.29,8.29-8.5.44-5.11.4-14.41,0-19.54-.4-5.14-4.12-8.96-9.43-8.96ZM340.4,112.33c.04,1.29-1.87,3.31-3.04,3.31h-20.77v-25.65h19.86c.17,0,1.67.45,1.93.56,1.28.57,1.93,2.06,2.05,3.4.52,5.84-.39,12.46-.03,18.37Z"/>
    <g>
      <path class="st0" d="M290.63,119.39c-2.2-4.82-5.64-9.55-7.93-14.41l-17.07-19.81-.23-.85h9.25c5.45,6.1,11.05,12.14,15.79,18.8.42,5.38.07,10.86.18,16.27Z"/>
      <path class="st4" d="M298.44,84.32h8.17c.84,0-.19,1.32-.37,1.55-4.13,5.24-9.48,9.94-13.44,15.39l-.61.37-3.47-3.99c-.23-.52-1.1-1.05-.94-1.63l9.22-10.5,1.44-1.2Z"/>
      <path class="st4" d="M290.63,119.39c.18.39.37,1.44.48,1.92h-9.37c.25-1.13.84-2.05.96-3.25.42-4.13-.3-8.89,0-13.09,2.29,4.87,5.73,9.6,7.93,14.41Z"/>
    </g>
  </g>
</svg>