<?xml version="1.0" encoding="UTF-8"?>
<svg id="Capa_1" xmlns="http://www.w3.org/2000/svg" version="1.1" viewBox="0 0 840 445">
  <!-- Generator: Adobe Illustrator 30.0.0, SVG Export Plug-In . SVG Version: 2.1.1 Build 123)  -->
  <defs>
    <style>
      .st0 {
        fill: #e8a838;
      }

      .st1 {
        fill: #d8eff4;
      }

      .st2 {
        fill: #5ea9d5;
      }

      .st3 {
        fill: #1b3a6b;
      }

      .st4 {
        fill: #a8dce8;
      }

      .st5 {
        fill: none;
        stroke: #fff;
        stroke-miterlimit: 10;
        stroke-width: .81px;
      }

      .st6 {
        fill: #fefefe;
      }

      .st7 {
        fill: #feffff;
      }
    </style>
  </defs>
  <g>
    <g>
      <path class="st0" d="M309.35,315.23v-79.33c0-.05.68-.74.74-.74h59.93c11.48,0,19.53,8.26,20.4,19.39.87,11.1.95,31.23,0,42.28-.78,9.12-8.29,18.4-17.95,18.4h-63.12ZM324.09,302.95h44.95c2.55,0,6.67-4.38,6.59-7.17-.78-12.81,1.19-27.14.06-39.77-.26-2.89-1.67-6.11-4.43-7.36-.56-.25-3.81-1.22-4.18-1.22h-42.98v55.51Z"/>
      <path class="st3" d="M575.6,314.74v25.3c0,.05-.68.74-.74.74h-12.77c-.05,0-.74-.68-.74-.74v-71.23c0-.94,1.14-4.71,1.6-5.76,2.55-5.78,8.54-7.32,14.37-7.74,11.2-.82,31.22-.9,42.2.53,6.36.83,10.58,6.29,11.11,12.47.73,8.51.83,25.98-.02,34.4-.79,7.76-6.64,11.87-14,12.52-10.88.97-26.66.41-37.84.03-1.1-.04-2.08-.5-3.17-.51ZM580.88,265.25c-2.95.43-4.57,1.57-5.25,4.57l.21,34.12c.44.73,3.01,1.36,3.94,1.47,7.21.8,22.08.57,29.5.02,4.4-.33,7.16-1.34,7.61-6.14.64-6.86.64-21.18,0-28.04-.35-3.74-2.38-5.72-6.16-6.12-6.25-.67-23.77-.75-29.84.13Z"/>
      <path class="st3" d="M493.81,315.23c-7.01-.74-12.22-5.52-12.96-12.59-.87-8.38-.82-25.88-.05-34.32.8-8.81,6.68-12.38,14.98-13.02,10.61-.82,28.17-.8,38.79,0,4.96.37,10.14,1.77,12.94,6.21.49.78,2.04,4.66,2.04,5.32v21.61c0,.05-.68.74-.74.74h-53.54c-.05,0-.74.68-.74.74v8.84c0,.6.83,3.5,1.25,4.16,1.94,3.05,9.79,1.89,13.27,1.96,7.02.14,14.12.05,21.08,0,5.1-.04,12.44-.56,17.24,0,.49.06,1.69.22,1.69.76v8.84c0,.05-.68.74-.74.74h-54.53ZM494.54,278.88h40.53c.05,0,.74-.68.74-.74v-8.35c0-2.42-2.96-4.32-5.2-4.62-4.75-.64-27.84-.68-31.96.37-1.71.43-4.1,2.49-4.1,4.25v9.09Z"/>
      <path class="st3" d="M469,289.19h-53.79c-.05,0-.74.68-.74.74v10.81c0,1.48,2.62,3.9,4.2,4.15,5.71.91,15.83-.02,22.1,0,2.45.01,4.89,0,7.33,0,3.23.01,18.26-.5,19.91.27.23.11.99.89.99.98v8.35c0,.05-.68.74-.74.74h-55.02c-5.65,0-11.8-6-12.47-11.6-1.34-11.24.89-24.8-.05-36.29.94-8.32,7.31-11.44,14.98-12.03,9.16-.71,34.84-1.17,43.1.6,3.77.81,10.19,5.34,10.19,9.46v23.82ZM414.48,278.88h40.53c.05,0,.74-.68.74-.74v-7.86c0-1.96-2.62-4.33-4.51-4.82-3.74-.96-27.13-.89-31.55-.29-1.53.21-5.2,2-5.2,3.64v10.07Z"/>
    </g>
    <path class="st0" d="M789.28,247.93c.17.83-42.71,55.74-50.38,66.28-1.78,1.47-10.07,1.51-11.99.26l-18.43-23.33c-1.97-1.51-4.01-1.49-7.36-1.44-14.37.2-28.76-.29-43.13.09-8.4,2.5-7.78,15.72.9,17.54l44.57.13c1.04.6,6.65,6.92,5.75,7.76-14.38-.46-29.15.62-43.49.02-5.38-.22-10.84-.11-15.21-3.46-11.09-8.5-6.89-28.23,7.84-29.49,16.16-1.39,33.84-.31,50.63,0,3.03.26,4.95,1.11,7.12,3.2,5.55,5.33,10.29,14.65,15.71,20.15,1.7,1.72,1.19.31,1.94-.47,17.35-18.16,32.69-38.38,50.09-56.54,1.43-1.3,3.64-.52,5.43-.7Z"/>
    <g>
      <path class="st3" d="M702.82,238.6v-9.82c3.81-.76,8.12-.59,12.06-.51,9.99.21,24.17,1.19,33.89.03,1.72-.21,4.66-1.93,4.66-3.7v-9.58h-40.53c-4.63,0-12.04-6.76-12.04-11.54v-44.21c0-.05.68-.74.74-.74h12.77c.62,0,1.17,1.54,1.25,2.19,1.61,11.97-1.46,27.64-.04,39.82.36,3.08,2.39,3.92,5.15,4.18,9.66.9,20.68-.73,30.5,0,.62.19,2.19-.85,2.19-1.25v-44.21c0-.05.68-.74.74-.74h13.26c.05,0,.74.68.74.74v66.32c0,7.27-8.74,13.51-15.47,13.51h-48.63c-.16,0-.75-.65-1.23-.49Z"/>
      <path class="st3" d="M459.67,215.02l-52.82.02c-12.17-1.24-13.84-10.93-13.02-21.4.59-7.46,6.4-13,14.02-13h37.58v-8.11c0-1.19-3.61-4.09-5.16-3.68l-44.11-.1c-1.92-.56-2.35-9.88.41-10.2,15.67.86,32.63-1.2,48.15-.03,5.97.45,11.57,2.86,13.92,8.68.21.53,1.04,2.62,1.04,2.88v44.95ZM445.42,191.44h-34.14c-1.39,0-3.04,2.21-3.21,3.66-.6,4.94-.51,9.09,5.16,9.62,7.53.7,21.91.6,29.52,0,.95-.07,1.78-.29,2.68-.52v-12.77Z"/>
      <path class="st3" d="M689.56,215.02h-53.79c-2.42,0-7.59-3.14-9.09-5.16-4.15-5.56-4.01-21.74,2.21-26.28,1.78-1.3,6.74-2.95,8.84-2.95h37.58v-8.6c0-1.47-3.25-3.04-4.66-3.2-13.26-1.59-29.67,1.19-43.26.04-.62.19-2.19-.85-2.19-1.25v-8.35c0-.05.68-.74.74-.74h50.6c4.7,0,13.02,5.99,13.02,11.05v45.44ZM675.81,202.98c.47-2.59,0-7.85,0-10.81,0-.05-.68-.74-.74-.74h-33.89c-.12,0-1.87.96-2.06,1.14-2.01,1.84-2.19,11.5,2.29,11.89,10-.37,21.91,1.29,31.71.23,1.16-.13,2.45-.38,2.69-1.72Z"/>
      <path class="st3" d="M561.84,138.88v19.65h38.56c1.66,0,6.41,1.86,7.86,2.95,1.71,1.28,5.16,6.11,5.16,8.1v45.44h-14.25v-41.51c0-2.3-2.93-4.41-5.15-4.68-8.9-1.07-19.87.83-29,0-1.07-.24-3.18,1.31-3.18,2.22v43.96h-13.51c-.05,0-.74-.68-.74-.74v-75.4h14.25Z"/>
      <path class="st3" d="M536.79,168.35c-.9.23-1.73.44-2.68.52-14,1.1-29.88-1.32-43.77-.05-2.68.25-4.82,1.95-5.15,4.68-.66,5.58-.66,21.45,0,27.04.2,1.74,1.95,4.16,3.7,4.16h47.16c.05,0,.74.68.74.74v8.84c0,.05-.68.74-.74.74h-53.54c-1.15,0-5.77-2.12-6.88-2.95-3.14-2.35-4.85-6.2-5.18-10.05-.51-5.97-.76-29.35.76-34.15,1.02-3.23,3.79-6.47,6.93-7.81.82-.35,4.73-1.53,5.35-1.53h52.56c.05,0,.74.68.74.74v9.09Z"/>
      <g>
        <path class="st0" d="M358.48,210.11c-4.49-9.85-11.53-19.52-16.21-29.47l-34.9-40.5-.47-1.74h18.91c11.14,12.47,22.6,24.82,32.29,38.45.87,10.99.14,22.21.38,33.27Z"/>
        <path class="st3" d="M374.44,138.39h16.7c1.72,0-.38,2.71-.75,3.18-8.44,10.71-19.38,20.33-27.49,31.46l-1.24.76-7.1-8.15c-.48-1.07-2.24-2.16-1.93-3.33l18.86-21.47,2.95-2.45Z"/>
        <path class="st3" d="M358.48,210.11c.36.8.76,2.95.98,3.93h-19.16c.51-2.31,1.71-4.2,1.96-6.64.85-8.44-.62-18.19,0-26.77,4.68,9.95,11.72,19.63,16.21,29.47Z"/>
      </g>
    </g>
  </g>
  <g>
    <g>
      <g>
        <circle class="st0" cx="105.95" cy="74.14" r="31.56"/>
        <g>
          <path class="st4" d="M84.03,200.37s67.17-92.36,74.28-92.36c6.35,0,76.49,92.36,76.49,92.36H84.03Z"/>
          <path class="st1" d="M84.03,200.37s31.6-63.05,36.26-63.05c5.07,0-8.21,63.05-8.21,63.05h-28.05Z"/>
        </g>
        <path class="st3" d="M50.72,199.05h217.39v66.62c0,9.35-3.51,18.7-10.52,28.05l-77.14,94.67c-8.18,9.35-15.19,14.03-21.04,14.03s-12.86-4.68-21.04-14.03l-77.14-94.67c-7.01-9.35-10.52-18.7-10.52-28.05v-66.62Z"/>
      </g>
      <g>
        <line class="st5" x1="232.55" y1="202.33" x2="252.43" y2="224.04"/>
        <line class="st5" x1="252.43" y1="224.04" x2="140.47" y2="280.33"/>
        <line class="st5" x1="252.43" y1="224.04" x2="218.47" y2="304.46"/>
        <circle class="st2" cx="252.43" cy="224.04" r="7.53"/>
        <circle class="st7" cx="140.47" cy="280.33" r="7.06"/>
        <circle class="st7" cx="218.47" cy="304.46" r="6.59"/>
        <circle class="st7" cx="161.18" cy="354.63" r="5.65"/>
        <circle class="st7" cx="132.69" cy="350.48" r="4.71"/>
        <circle class="st6" cx="75.75" cy="252.88" r="7.53"/>
        <line class="st5" x1="77.7" y1="204.01" x2="76.82" y2="251.41"/>
        <line class="st5" x1="164.29" y1="211.12" x2="140.47" y2="280.33"/>
        <line class="st5" x1="75.75" y1="252.88" x2="140.47" y2="280.33"/>
        <line class="st5" x1="140.47" y1="281.14" x2="132.69" y2="351.08"/>
        <line class="st5" x1="75.75" y1="252.88" x2="132.69" y2="351.08"/>
        <line class="st5" x1="218.47" y1="304.46" x2="161.18" y2="354.63"/>
        <line class="st5" x1="140.47" y1="281.14" x2="218.47" y2="304.46"/>
        <line class="st5" x1="161.18" y1="354.63" x2="158.78" y2="401.19"/>
        <line class="st5" x1="218.47" y1="304.46" x2="158.78" y2="401.19"/>
        <line class="st5" x1="158.78" y1="401.19" x2="132.69" y2="351.08"/>
        <line class="st5" x1="132.69" y1="351.08" x2="161.18" y2="354.63"/>
      </g>
    </g>
    <g>
      <path class="st3" d="M259.65,102.39h-21.95c-.81.87-1.61,1.73-2.42,2.6v29.56h25.35c3.88,0,6.9-3.73,7.21-7.39.38-4.44.35-12.52,0-16.98-.35-4.47-3.58-7.79-8.19-7.79ZM261.9,126.74c.03,1.12-1.62,2.88-2.65,2.88h-18.05v-22.29h17.26c.15,0,1.45.39,1.68.49,1.11.5,1.68,1.79,1.78,2.95.45,5.07-.34,10.83-.03,15.97Z"/>
      <g>
        <path class="st0" d="M218.64,132.88c-1.91-4.19-4.9-8.3-6.89-12.53l-14.84-17.22-.2-.74h8.04c4.74,5.3,9.61,10.55,13.73,16.34.37,4.67.06,9.44.16,14.14Z"/>
        <path class="st3" d="M225.43,102.39h7.1c.73,0-.16,1.15-.32,1.35-3.59,4.55-8.24,8.64-11.68,13.37l-.53.32-3.02-3.46c-.2-.45-.95-.92-.82-1.41l8.02-9.13,1.26-1.04Z"/>
        <path class="st3" d="M218.64,132.88c.15.34.32,1.25.42,1.67h-8.14c.22-.98.73-1.78.83-2.82.36-3.59-.26-7.73,0-11.38,1.99,4.23,4.98,8.34,6.89,12.53Z"/>
      </g>
    </g>
  </g>
</svg>